<?xml version="1.0" encoding="UTF-8"?> <!-- Generator: Adobe Illustrator 16.0.4, SVG Export Plug-In . SVG Version: 6.00 Build 0) --> <svg xmlns="http://www.w3.org/2000/svg" xmlns:xlink="http://www.w3.org/1999/xlink" id="Layer_1" x="0px" y="0px" width="496px" height="150px" viewBox="0 0 496 150" xml:space="preserve"> <g> <defs> <rect id="SVGID_1_" width="496" height="150"></rect> </defs> <clipPath id="SVGID_2_"> <use xlink:href="#SVGID_1_" overflow="visible"></use> </clipPath> <rect x="1.5" y="1.5" clip-path="url(#SVGID_2_)" fill="#FFFFFF" width="493" height="147"></rect> <path clip-path="url(#SVGID_2_)" fill="#DADCE0" d="M494,148H2V2h492V148z M495,1H1v148h494V1z"></path> <g clip-path="url(#SVGID_2_)"> <defs> <rect id="SVGID_3_" width="496" height="150"></rect> </defs> <clipPath id="SVGID_4_"> <use xlink:href="#SVGID_3_" overflow="visible"></use> </clipPath> <path clip-path="url(#SVGID_4_)" fill="#5F6368" d="M173.133,106.161c-3.897,0-7.166-1.319-9.805-3.959 c-2.639-2.639-3.959-5.932-3.959-9.879c0-3.946,1.32-7.239,3.959-9.879c2.639-2.639,5.908-3.959,9.805-3.959 c3.996,0,7.239,1.443,9.731,4.329l-2.368,2.294c-1.801-2.244-4.255-3.367-7.363-3.367c-2.886,0-5.322,0.975-7.307,2.923 c-1.986,1.949-2.979,4.502-2.979,7.659c0,3.158,0.993,5.711,2.979,7.659c1.985,1.949,4.421,2.923,7.307,2.923 c3.182,0,5.896-1.282,8.14-3.849l2.368,2.369c-1.209,1.455-2.726,2.608-4.551,3.459 C177.264,105.735,175.279,106.161,173.133,106.161"></path> <path clip-path="url(#SVGID_4_)" fill="#5F6368" d="M190.079,79.077v8.362l-0.148,2.516h0.148c0.493-0.863,1.27-1.597,2.331-2.201 c1.06-0.604,2.195-0.906,3.404-0.906c2.244,0,3.959,0.69,5.143,2.071c1.184,1.382,1.776,3.232,1.776,5.551v11.1h-3.404V94.987 c0-3.354-1.493-5.032-4.477-5.032c-1.406,0-2.553,0.561-3.441,1.684s-1.332,2.424-1.332,3.903v10.027h-3.404V79.077H190.079z"></path> <path clip-path="url(#SVGID_4_)" fill="#5F6368" d="M210.133,105.569h-3.404v-18.13h3.256v2.96h0.148 c0.345-0.986,1.054-1.801,2.127-2.442c1.073-0.641,2.115-0.962,3.127-0.962c1.011,0,1.862,0.148,2.553,0.444l-1.295,3.182 c-0.444-0.172-1.049-0.259-1.813-0.259c-1.234,0-2.325,0.487-3.275,1.462c-0.949,0.974-1.424,2.251-1.424,3.829V105.569z"></path> <path clip-path="url(#SVGID_4_)" fill="#5F6368" d="M220.64,89.604c1.751-1.837,3.983-2.756,6.697-2.756 c2.713,0,4.945,0.919,6.697,2.756c1.751,1.838,2.627,4.139,2.627,6.9c0,2.764-0.876,5.063-2.627,6.901 c-1.752,1.838-3.984,2.756-6.697,2.756c-2.714,0-4.946-0.918-6.697-2.756c-1.752-1.838-2.627-4.138-2.627-6.901 C218.013,93.742,218.888,91.441,220.64,89.604 M223.174,101.259c1.171,1.196,2.559,1.795,4.163,1.795 c1.603,0,2.99-0.599,4.162-1.795c1.172-1.196,1.758-2.78,1.758-4.755c0-1.973-0.586-3.559-1.758-4.754 c-1.172-1.196-2.559-1.795-4.162-1.795c-1.604,0-2.992,0.599-4.163,1.795c-1.171,1.195-1.757,2.781-1.757,4.754 C221.417,98.479,222.003,100.062,223.174,101.259"></path> <path clip-path="url(#SVGID_4_)" fill="#5F6368" d="M239.399,105.569v-18.13h3.256v2.516h0.148 c0.518-0.864,1.314-1.597,2.387-2.201c1.073-0.604,2.139-0.906,3.2-0.906c2.812,0,4.724,1.159,5.735,3.478 c1.48-2.318,3.59-3.478,6.327-3.478c2.146,0,3.762,0.685,4.847,2.053c1.086,1.369,1.628,3.226,1.628,5.569v11.1h-3.403V94.987 c0-1.825-0.333-3.12-1-3.885c-0.666-0.765-1.678-1.147-3.033-1.147c-1.332,0-2.437,0.568-3.312,1.702 c-0.876,1.135-1.313,2.43-1.313,3.885v10.027h-3.404V94.987c0-1.825-0.333-3.12-0.999-3.885c-0.665-0.765-1.677-1.147-3.034-1.147 c-1.332,0-2.436,0.568-3.311,1.702c-0.876,1.135-1.314,2.43-1.314,3.885v10.027H239.399z"></path> <path clip-path="url(#SVGID_4_)" fill="#5F6368" d="M279.137,106.161c-2.738,0-4.965-0.912-6.68-2.738 c-1.714-1.824-2.57-4.131-2.57-6.919c0-2.639,0.832-4.908,2.497-6.808s3.793-2.849,6.383-2.849c2.688,0,4.841,0.876,6.456,2.627 s2.424,4.095,2.424,7.029l-0.037,0.631h-14.318c0.098,1.824,0.708,3.268,1.831,4.327c1.122,1.062,2.436,1.592,3.94,1.592 c2.442,0,4.095-1.036,4.958-3.108l3.034,1.258c-0.592,1.406-1.566,2.584-2.923,3.534 C282.774,105.687,281.109,106.161,279.137,106.161 M284.021,94.321c-0.074-1.036-0.549-2.022-1.425-2.96 c-0.875-0.938-2.177-1.406-3.903-1.406c-1.258,0-2.35,0.396-3.274,1.185s-1.561,1.85-1.905,3.182H284.021z"></path> <polygon clip-path="url(#SVGID_4_)" fill="#5F6368" points="328.865,79.077 321.798,105.569 318.319,105.569 312.622,88.105 312.474,88.105 306.775,105.569 303.298,105.569 295.935,79.077 299.486,79.077 305.074,99.908 305.221,99.908 310.957,82.629 314.139,82.629 319.874,99.908 320.021,99.908 325.312,79.077 "></polygon> <path clip-path="url(#SVGID_4_)" fill="#5F6368" d="M337.708,106.161c-2.738,0-4.965-0.912-6.68-2.738 c-1.714-1.824-2.57-4.131-2.57-6.919c0-2.639,0.832-4.908,2.497-6.808s3.793-2.849,6.383-2.849c2.688,0,4.841,0.876,6.456,2.627 s2.424,4.095,2.424,7.029l-0.037,0.631h-14.317c0.097,1.824,0.707,3.268,1.83,4.327c1.122,1.062,2.436,1.592,3.94,1.592 c2.442,0,4.095-1.036,4.958-3.108l3.034,1.258c-0.592,1.406-1.566,2.584-2.923,3.534 C341.346,105.687,339.681,106.161,337.708,106.161 M342.592,94.321c-0.074-1.036-0.549-2.022-1.425-2.96 c-0.875-0.938-2.177-1.406-3.903-1.406c-1.258,0-2.35,0.396-3.275,1.185c-0.924,0.789-1.56,1.85-1.904,3.182H342.592z"></path> <path clip-path="url(#SVGID_4_)" fill="#5F6368" d="M358.909,106.161c-1.382,0-2.621-0.296-3.719-0.888s-1.918-1.332-2.461-2.22 h-0.147v2.516h-3.256V79.077h3.403v8.362l-0.147,2.516h0.147c0.543-0.888,1.363-1.628,2.461-2.22s2.337-0.888,3.719-0.888 c2.343,0,4.366,0.925,6.067,2.774c1.702,1.851,2.554,4.145,2.554,6.882c0,2.738-0.852,5.032-2.554,6.883 C363.275,105.236,361.252,106.161,358.909,106.161 M358.354,103.054c1.579,0,2.936-0.599,4.07-1.795s1.701-2.78,1.701-4.755 c0-1.973-0.566-3.558-1.701-4.754s-2.491-1.795-4.07-1.795c-1.604,0-2.966,0.592-4.088,1.776 c-1.123,1.184-1.684,2.774-1.684,4.772s0.561,3.59,1.684,4.773C355.388,102.461,356.749,103.054,358.354,103.054"></path> <path clip-path="url(#SVGID_4_)" fill="#5F6368" d="M385.733,106.161c-1.924,0-3.805-0.629-5.643-1.887 c-1.838-1.259-3.04-3.021-3.607-5.291l3.108-1.258c0.37,1.455,1.128,2.683,2.275,3.682s2.436,1.498,3.866,1.498 c1.479,0,2.744-0.39,3.793-1.165c1.048-0.777,1.572-1.832,1.572-3.164c0-1.479-0.524-2.62-1.572-3.422 c-1.049-0.802-2.708-1.548-4.977-2.239c-2.344-0.739-4.12-1.695-5.328-2.867c-1.209-1.171-1.812-2.67-1.812-4.495 c0-1.899,0.752-3.553,2.257-4.958c1.504-1.406,3.465-2.109,5.883-2.109c2.244,0,4.07,0.562,5.476,1.684 c1.406,1.123,2.318,2.35,2.738,3.681l-3.108,1.296c-0.222-0.839-0.771-1.615-1.646-2.331c-0.875-0.716-2.004-1.073-3.385-1.073 c-1.308,0-2.424,0.364-3.349,1.092s-1.388,1.634-1.388,2.72c0,0.986,0.426,1.819,1.276,2.497c0.852,0.679,2.103,1.289,3.756,1.831 c1.307,0.42,2.398,0.827,3.274,1.222c0.875,0.395,1.763,0.919,2.664,1.572c0.9,0.654,1.578,1.468,2.035,2.442 c0.456,0.975,0.685,2.103,0.685,3.385c0,1.283-0.266,2.43-0.796,3.441c-0.531,1.012-1.233,1.812-2.109,2.405 c-0.877,0.592-1.819,1.041-2.83,1.351C387.83,106.007,386.794,106.161,385.733,106.161"></path> <path clip-path="url(#SVGID_4_)" fill="#5F6368" d="M405.048,105.865c-1.899,0-3.349-0.505-4.348-1.517s-1.498-2.442-1.498-4.292 v-9.51h-3.183v-3.107h3.183v-5.55h3.403v5.55h4.44v3.107h-4.44v9.25c0,1.975,0.814,2.961,2.442,2.961 c0.616,0,1.134-0.099,1.554-0.297l1.185,2.924C407.046,105.705,406.133,105.865,405.048,105.865"></path> <path clip-path="url(#SVGID_4_)" fill="#5F6368" d="M411.708,89.604c1.751-1.837,3.983-2.756,6.697-2.756 c2.713,0,4.945,0.919,6.696,2.756c1.752,1.838,2.627,4.139,2.627,6.9c0,2.764-0.875,5.063-2.627,6.901 c-1.751,1.838-3.983,2.756-6.696,2.756c-2.714,0-4.946-0.918-6.697-2.756c-1.752-1.838-2.627-4.138-2.627-6.901 C409.081,93.742,409.956,91.441,411.708,89.604 M414.242,101.259c1.172,1.196,2.559,1.795,4.163,1.795 c1.603,0,2.99-0.599,4.162-1.795c1.171-1.196,1.758-2.78,1.758-4.755c0-1.973-0.587-3.559-1.758-4.754 c-1.172-1.196-2.56-1.795-4.162-1.795c-1.604,0-2.991,0.599-4.163,1.795c-1.172,1.195-1.757,2.781-1.757,4.754 C412.485,98.479,413.07,100.062,414.242,101.259"></path> <path clip-path="url(#SVGID_4_)" fill="#5F6368" d="M433.87,105.569h-3.403v-18.13h3.256v2.96h0.147 c0.346-0.986,1.055-1.801,2.128-2.442c1.073-0.641,2.115-0.962,3.127-0.962c1.011,0,1.861,0.148,2.553,0.444l-1.295,3.182 c-0.444-0.172-1.049-0.259-1.813-0.259c-1.233,0-2.325,0.487-3.274,1.462c-0.95,0.974-1.425,2.251-1.425,3.829V105.569z"></path> <path clip-path="url(#SVGID_4_)" fill="#5F6368" d="M451.001,106.161c-2.738,0-4.965-0.912-6.679-2.738 c-1.715-1.824-2.571-4.131-2.571-6.919c0-2.639,0.832-4.908,2.497-6.808s3.793-2.849,6.383-2.849c2.688,0,4.841,0.876,6.456,2.627 s2.424,4.095,2.424,7.029l-0.037,0.631h-14.317c0.097,1.824,0.707,3.268,1.83,4.327c1.122,1.062,2.436,1.592,3.94,1.592 c2.442,0,4.095-1.036,4.958-3.108l3.034,1.258c-0.592,1.406-1.566,2.584-2.923,3.534 C454.639,105.687,452.974,106.161,451.001,106.161 M455.885,94.321c-0.074-1.036-0.549-2.022-1.425-2.96 c-0.875-0.938-2.177-1.406-3.903-1.406c-1.258,0-2.35,0.396-3.274,1.185s-1.561,1.85-1.905,3.182H455.885z"></path> <path clip-path="url(#SVGID_4_)" fill="#5F6368" d="M161.336,64.438l7.56-20.048h2.912l7.56,20.048h-2.856l-1.932-5.432h-8.428 l-1.96,5.432H161.336z M167.02,56.598h6.664l-3.276-9.044h-0.112L167.02,56.598z"></path> <polygon clip-path="url(#SVGID_4_)" fill="#5F6368" points="183.96,64.438 178.417,50.718 181.216,50.718 185.249,61.358 185.304,61.358 189.393,50.718 192.136,50.718 186.537,64.438 "></polygon> <path clip-path="url(#SVGID_4_)" fill="#5F6368" d="M197.876,64.887c-1.456,0-2.674-0.42-3.654-1.26 c-0.98-0.841-1.47-1.951-1.47-3.332c0-1.493,0.578-2.665,1.736-3.515c1.157-0.849,2.585-1.273,4.284-1.273 c1.512,0,2.753,0.279,3.724,0.84v-0.393c0-1.008-0.346-1.815-1.036-2.422c-0.691-0.606-1.54-0.91-2.548-0.91 c-0.747,0-1.424,0.178-2.03,0.532c-0.607,0.356-1.022,0.84-1.246,1.456l-2.352-1.008c0.317-0.821,0.942-1.582,1.876-2.282 c0.933-0.7,2.165-1.05,3.696-1.05c1.754,0,3.21,0.514,4.368,1.54c1.157,1.027,1.736,2.474,1.736,4.34v8.288h-2.464v-1.904h-0.112 C201.357,64.102,199.854,64.887,197.876,64.887 M198.296,62.534c1.064,0,2.03-0.396,2.898-1.189s1.302-1.732,1.302-2.815 c-0.728-0.597-1.82-0.895-3.276-0.895c-1.251,0-2.194,0.27-2.828,0.811c-0.635,0.542-0.952,1.176-0.952,1.904 c0,0.672,0.289,1.205,0.868,1.596C196.886,62.339,197.549,62.534,198.296,62.534"></path> <path clip-path="url(#SVGID_4_)" fill="#5F6368" d="M210.672,47.274c-0.355,0.354-0.784,0.532-1.288,0.532 c-0.504,0-0.934-0.178-1.288-0.532c-0.355-0.355-0.533-0.784-0.533-1.288c0-0.504,0.178-0.933,0.533-1.288 c0.354-0.355,0.784-0.532,1.288-0.532c0.504,0,0.933,0.177,1.288,0.532c0.354,0.355,0.532,0.784,0.532,1.288 C211.204,46.49,211.026,46.919,210.672,47.274 M210.672,64.438h-2.576v-13.72h2.576V64.438z"></path> <rect x="214.031" y="44.39" clip-path="url(#SVGID_4_)" fill="#5F6368" width="2.576" height="20.048"></rect> <path clip-path="url(#SVGID_4_)" fill="#5F6368" d="M223.944,64.887c-1.456,0-2.674-0.42-3.654-1.26 c-0.98-0.841-1.47-1.951-1.47-3.332c0-1.493,0.578-2.665,1.736-3.515c1.157-0.849,2.585-1.273,4.284-1.273 c1.512,0,2.753,0.279,3.724,0.84v-0.393c0-1.008-0.346-1.815-1.036-2.422c-0.691-0.606-1.54-0.91-2.548-0.91 c-0.747,0-1.424,0.178-2.03,0.532c-0.607,0.356-1.022,0.84-1.246,1.456l-2.352-1.008c0.317-0.821,0.942-1.582,1.876-2.282 c0.933-0.7,2.165-1.05,3.696-1.05c1.754,0,3.21,0.514,4.368,1.54c1.157,1.027,1.736,2.474,1.736,4.34v8.288h-2.464v-1.904h-0.112 C227.425,64.102,225.922,64.887,223.944,64.887 M224.364,62.534c1.064,0,2.03-0.396,2.898-1.189s1.302-1.732,1.302-2.815 c-0.728-0.597-1.82-0.895-3.276-0.895c-1.251,0-2.194,0.27-2.828,0.811c-0.635,0.542-0.952,1.176-0.952,1.904 c0,0.672,0.289,1.205,0.868,1.596C222.954,62.339,223.617,62.534,224.364,62.534"></path> <path clip-path="url(#SVGID_4_)" fill="#5F6368" d="M241.191,64.887c-1.045,0-1.983-0.225-2.814-0.672 c-0.831-0.449-1.452-1.009-1.862-1.681h-0.112v1.904h-2.464V44.39h2.576v6.329l-0.112,1.903h0.112 c0.41-0.672,1.031-1.232,1.862-1.68c0.831-0.448,1.769-0.672,2.814-0.672c1.773,0,3.304,0.701,4.592,2.1 c1.289,1.4,1.931,3.137,1.931,5.208c0,2.072-0.642,3.809-1.931,5.208C244.496,64.186,242.964,64.887,241.191,64.887 M240.771,62.534c1.194,0,2.221-0.452,3.08-1.357c0.858-0.906,1.288-2.105,1.288-3.599c0-1.493-0.43-2.692-1.288-3.598 c-0.859-0.905-1.886-1.358-3.08-1.358c-1.213,0-2.245,0.448-3.094,1.345c-0.849,0.895-1.274,2.099-1.274,3.611 c0,1.513,0.425,2.717,1.274,3.612C238.526,62.087,239.559,62.534,240.771,62.534"></path> <rect x="249.928" y="44.39" clip-path="url(#SVGID_4_)" fill="#5F6368" width="2.575" height="20.048"></rect> <path clip-path="url(#SVGID_4_)" fill="#5F6368" d="M261.716,64.886c-2.072,0-3.757-0.69-5.054-2.072 c-1.298-1.381-1.946-3.126-1.946-5.237c0-1.997,0.63-3.714,1.89-5.151s2.869-2.156,4.83-2.156c2.034,0,3.663,0.663,4.886,1.988 s1.834,3.099,1.834,5.319l-0.027,0.477h-10.836c0.074,1.382,0.536,2.474,1.386,3.275c0.849,0.803,1.843,1.204,2.981,1.204 c1.849,0,3.099-0.784,3.753-2.351l2.296,0.952c-0.448,1.063-1.186,1.955-2.212,2.674 C264.469,64.526,263.209,64.886,261.716,64.886 M265.412,55.926c-0.057-0.784-0.416-1.53-1.078-2.24 c-0.663-0.709-1.648-1.065-2.954-1.065c-0.952,0-1.778,0.299-2.479,0.897c-0.7,0.597-1.181,1.4-1.441,2.408H265.412z"></path> <path clip-path="url(#SVGID_4_)" fill="#5F6368" d="M279.467,47.274c-0.354,0.354-0.784,0.532-1.288,0.532 s-0.934-0.178-1.288-0.532c-0.354-0.355-0.532-0.784-0.532-1.288c0-0.504,0.178-0.933,0.532-1.288 c0.354-0.355,0.784-0.532,1.288-0.532s0.934,0.177,1.288,0.532c0.354,0.355,0.532,0.784,0.532,1.288 C279.999,46.49,279.821,46.919,279.467,47.274 M279.467,64.438h-2.576v-13.72h2.576V64.438z"></path> <path clip-path="url(#SVGID_4_)" fill="#5F6368" d="M285.29,50.718v1.903h0.111c0.374-0.652,0.962-1.208,1.765-1.666 c0.802-0.457,1.661-0.685,2.576-0.685c1.698,0,2.996,0.522,3.892,1.568c0.896,1.045,1.344,2.445,1.344,4.199v8.401h-2.576V56.43 c0-2.538-1.129-3.809-3.388-3.809c-1.063,0-1.932,0.425-2.604,1.275c-0.672,0.849-1.009,1.834-1.009,2.954v7.588h-2.575v-13.72 H285.29z"></path> <path clip-path="url(#SVGID_4_)" fill="#5F6368" d="M310.097,64.662c-1.437,0-2.534-0.382-3.29-1.147 c-0.756-0.766-1.134-1.849-1.134-3.249V53.07h-2.408v-2.351h2.408v-4.201h2.576v4.201h3.359v2.351h-3.359v7 c0,1.494,0.616,2.24,1.848,2.24c0.467,0,0.858-0.074,1.176-0.223l0.896,2.212C311.608,64.541,310.918,64.662,310.097,64.662"></path> <path clip-path="url(#SVGID_4_)" fill="#5F6368" d="M316.788,44.39v6.328l-0.111,1.903h0.111c0.374-0.652,0.962-1.208,1.765-1.666 c0.802-0.457,1.661-0.685,2.576-0.685c1.698,0,2.996,0.522,3.892,1.568c0.896,1.045,1.344,2.446,1.344,4.199v8.401h-2.576V56.43 c0-2.538-1.129-3.809-3.388-3.809c-1.063,0-1.932,0.425-2.604,1.275c-0.672,0.849-1.009,1.834-1.009,2.954v7.588h-2.575V44.39 H316.788z"></path> <path clip-path="url(#SVGID_4_)" fill="#5F6368" d="M335.604,64.886c-2.072,0-3.757-0.69-5.054-2.072 c-1.298-1.381-1.946-3.126-1.946-5.237c0-1.997,0.63-3.714,1.89-5.151s2.87-2.156,4.83-2.156c2.034,0,3.664,0.663,4.886,1.988 c1.223,1.325,1.834,3.099,1.834,5.319l-0.027,0.477h-10.836c0.074,1.382,0.536,2.474,1.386,3.275 c0.849,0.803,1.843,1.204,2.981,1.204c1.849,0,3.099-0.784,3.753-2.351l2.296,0.952c-0.448,1.063-1.186,1.955-2.212,2.674 C338.357,64.526,337.098,64.886,335.604,64.886 M339.301,55.926c-0.057-0.784-0.416-1.53-1.078-2.24 c-0.663-0.709-1.648-1.065-2.954-1.065c-0.952,0-1.778,0.299-2.479,0.897c-0.7,0.597-1.181,1.4-1.441,2.408H339.301z"></path> </g> <g clip-path="url(#SVGID_2_)"> <defs> <path id="SVGID_5_" d="M61.466,42.601c0-2.768,2.242-5.01,5.01-5.01h25.048c2.767,0,5.01,2.242,5.01,5.01s-2.243,5.01-5.01,5.01 H66.476C63.708,47.611,61.466,45.369,61.466,42.601 M23.894,27.572v87.668c0,4.133,3.382,7.514,7.515,7.514h95.181 c4.133,0,7.515-3.381,7.515-7.514V27.572H23.894z"></path> </defs> <clipPath id="SVGID_6_"> <use xlink:href="#SVGID_5_" overflow="visible"></use> </clipPath> <rect x="23.895" y="27.572" clip-path="url(#SVGID_6_)" fill="#EEEEEE" width="110.211" height="95.182"></rect> <path clip-path="url(#SVGID_6_)" fill="#FFFFFF" d="M91.524,37.591H66.476c-2.767,0-5.01,2.242-5.01,5.01 c0,2.767,2.243,5.009,5.01,5.009h25.048c2.768,0,5.01-2.242,5.01-5.009C96.534,39.833,94.292,37.591,91.524,37.591"></path> </g> <g clip-path="url(#SVGID_2_)"> <defs> <path id="SVGID_7_" d="M31.409,115.24c0,0.039,0,0.077,0,0.116c0,0.028,0.001,0.059,0.001,0.089c0,0.025,0,0.053,0,0.078 c0,0.003,0,0.007,0,0.01l0,0c0,0.023,0,0.046,0.001,0.069c0,0.018,0,0.033,0,0.05v0.001c0,0.016,0,0.033,0,0.05 c0.001,0.003,0.001,0.006,0.001,0.008c0,0.035,0.001,0.071,0.001,0.106c0,0.004,0,0.008,0,0.012c0,0.012,0,0.023,0,0.035 c0.001,0.004,0.001,0.008,0.001,0.012c0,0.007,0,0.015,0,0.022c0,0.019,0,0.038,0,0.058c0.001,0.015,0.001,0.031,0.001,0.046 c0,0.005,0,0.011,0,0.017c0.001,0.049,0.002,0.098,0.003,0.146c0,0.001,0,0.003,0,0.005c0.002,0.08,0.003,0.157,0.006,0.237 c0,0.017,0,0.033,0,0.05c0,0.001,0,0.002,0,0.002c0.001,0.005,0.001,0.01,0.001,0.015c0,0.008,0,0.014,0,0.021l0,0 c0.001,0.038,0.002,0.076,0.003,0.115c0.001,0.011,0.001,0.022,0.002,0.033c0.001,0.025,0.001,0.048,0.002,0.072 c0,0.001,0,0.002,0,0.004c0,0.017,0.001,0.03,0.001,0.046c0,0.004,0,0.009,0,0.013c0.002,0.052,0.004,0.101,0.006,0.153 c0,0.007,0,0.014,0.001,0.021c0.001,0.034,0.002,0.071,0.003,0.104c0,0.001,0,0.004,0,0.006c0.001,0.012,0.001,0.022,0.002,0.033 c0,0.003,0,0.006,0,0.009s0,0.004,0,0.006c0,0.005,0,0.008,0.001,0.013c0,0.001,0,0.002,0,0.004 c0.004,0.09,0.007,0.178,0.011,0.267c0.002,0.047,0.004,0.097,0.006,0.143c0.001,0.004,0.001,0.007,0.001,0.011 c0.001,0.008,0.001,0.016,0.001,0.024c0,0.002,0,0.006,0,0.007c0.001,0.002,0.001,0.004,0.001,0.006 c0.001,0.018,0.002,0.036,0.002,0.054c0.001,0.012,0.001,0.021,0.002,0.032c0,0.002,0,0.004,0,0.006s0,0.003,0.001,0.005 c0,0.004,0,0.008,0,0.014c0.002,0.034,0.004,0.071,0.006,0.107c0,0.014,0.001,0.026,0.002,0.039c0,0.001,0,0.002,0,0.003 c0.005,0.081,0.009,0.159,0.014,0.239c0.001,0.019,0.002,0.038,0.003,0.059c0,0.003,0,0.007,0.001,0.009c0,0.002,0,0.004,0,0.005 s0,0.003,0,0.004c0.003,0.044,0.006,0.089,0.008,0.133c0,0.001,0,0.002,0,0.002c0,0.002,0.001,0.004,0.001,0.005s0,0.002,0,0.002 c0.007,0.101,0.013,0.2,0.02,0.299c0,0.001,0,0.003,0,0.004c0.002,0.021,0.003,0.039,0.005,0.06 c0.001,0.015,0.002,0.031,0.003,0.047c0.001,0.014,0.001,0.027,0.002,0.041c0.001,0.002,0.001,0.004,0.001,0.006l0,0 c0.029,0.396,0.063,0.791,0.101,1.185c0.001,0.013,0.003,0.024,0.004,0.037c0.003,0.031,0.006,0.062,0.009,0.095 c0.002,0.018,0.004,0.037,0.006,0.056c0.002,0.022,0.004,0.041,0.006,0.063c0.042,0.398,0.088,0.796,0.139,1.191 c0.001,0.007,0.001,0.011,0.002,0.018c0.004,0.033,0.009,0.068,0.013,0.103c0.002,0.013,0.004,0.026,0.005,0.038 c0.004,0.029,0.008,0.057,0.012,0.086c0.003,0.025,0.007,0.052,0.01,0.076c0.003,0.018,0.005,0.036,0.007,0.054 c0.046,0.334,0.095,0.667,0.148,0.998h94.002c0.076-0.479,0.145-0.961,0.206-1.446c0.001-0.003,0.001-0.005,0.001-0.008 c0.004-0.032,0.008-0.062,0.012-0.094c0.003-0.024,0.006-0.047,0.009-0.071c0.002-0.02,0.005-0.043,0.008-0.063 c0.004-0.035,0.008-0.07,0.012-0.105c0.002-0.014,0.003-0.025,0.005-0.04c0.005-0.044,0.011-0.088,0.016-0.132 c0-0.006,0.001-0.013,0.002-0.019c0.025-0.218,0.049-0.435,0.071-0.652c0.061-0.604,0.111-1.212,0.15-1.822 c0-0.001,0.001-0.002,0.001-0.003c0-0.002,0-0.004,0-0.006c0-0.001,0-0.003,0-0.004c0.003-0.045,0.005-0.089,0.008-0.134 c0,0,0.001-0.001,0.001-0.002c0-0.002,0-0.004,0-0.005s0-0.001,0-0.003c0.001-0.023,0.003-0.049,0.004-0.072 c0.003-0.038,0.005-0.076,0.007-0.114c0.002-0.039,0.004-0.078,0.006-0.117v-0.001c0.001-0.021,0.003-0.044,0.004-0.064 c0-0.004,0-0.009,0.001-0.013c0-0.006,0-0.01,0-0.016c0.001-0.003,0.001-0.006,0.001-0.008c0.001-0.012,0.001-0.023,0.001-0.035 c0-0.002,0.001-0.004,0.001-0.007c0-0.001,0-0.003,0-0.005s0-0.003,0.001-0.006c0-0.005,0-0.008,0-0.013c0,0,0-0.001,0-0.002 c0.001-0.018,0.002-0.037,0.003-0.056c0.001-0.016,0.001-0.031,0.002-0.046c0.001-0.009,0.001-0.017,0.001-0.024c0,0,0,0,0.001,0 c0-0.004,0-0.007,0-0.009c0.004-0.092,0.008-0.185,0.012-0.276c0-0.001,0-0.002,0-0.003c0-0.003,0.001-0.01,0.001-0.013 c0-0.001,0-0.003,0-0.004c0-0.008,0.001-0.017,0.001-0.024c0-0.001,0-0.003,0-0.005c0.002-0.039,0.003-0.079,0.005-0.118 c0-0.004,0-0.008,0-0.011c0-0.004,0-0.007,0-0.009c0.002-0.034,0.003-0.065,0.004-0.1c0.001-0.013,0.001-0.025,0.002-0.038 c0-0.005,0-0.008,0-0.013c0.001-0.029,0.002-0.058,0.003-0.087c0.001-0.021,0.001-0.04,0.002-0.061v-0.001 c0-0.003,0-0.008,0-0.011c0.001-0.015,0.001-0.029,0.002-0.045c0.001-0.028,0.002-0.057,0.002-0.086 c0-0.003,0.001-0.007,0.001-0.01c0-0.004,0-0.007,0-0.011c0.001-0.035,0.002-0.071,0.003-0.106c0-0.005,0-0.011,0-0.017 c0-0.002,0-0.005,0-0.008c0.001-0.009,0.001-0.017,0.001-0.024c0-0.001,0-0.002,0-0.003c0-0.007,0-0.014,0.001-0.021 c0-0.03,0.001-0.058,0.002-0.089c0.001-0.057,0.002-0.113,0.003-0.172c0-0.006,0-0.014,0.001-0.021c0-0.011,0-0.019,0-0.028 c0-0.002,0-0.004,0-0.006c0-0.023,0.001-0.044,0.001-0.066c0-0.002,0.001-0.005,0.001-0.007c0-0.008,0-0.016,0-0.023 c0,0,0,0,0-0.002c0-0.008,0-0.018,0-0.026c0.001-0.021,0.001-0.041,0.001-0.062c0-0.002,0-0.003,0-0.005 c0.001-0.01,0.001-0.02,0.001-0.028c0-0.007,0-0.013,0-0.019c0-0.004,0-0.009,0-0.013c0.001-0.014,0.001-0.026,0.001-0.038 c0-0.003,0-0.007,0-0.01c0-0.037,0.001-0.076,0.001-0.113c0-0.001,0-0.003,0-0.004c0-0.017,0-0.034,0.001-0.05 c0-0.002,0-0.004,0-0.006c0-0.015,0-0.028,0-0.043c0-0.023,0-0.048,0.001-0.071c0-0.003,0-0.005,0-0.007c0-0.028,0-0.057,0-0.083 c0-0.029,0-0.059,0-0.087c0-0.039,0-0.076,0-0.115c0-26.284-21.306-47.591-47.59-47.591 C52.717,67.649,31.409,88.956,31.409,115.24"></path> </defs> <clipPath id="SVGID_8_"> <use xlink:href="#SVGID_7_" overflow="visible"></use> </clipPath> <path clip-path="url(#SVGID_8_)" fill="#DB4437" d="M38.967,67.649v58.405h21.297L79,93.604h47.591V67.649H38.967z M38.967,67.649 v58.405h21.297L79,93.604h47.591V67.649H38.967z"></path> <path clip-path="url(#SVGID_8_)" fill="#0F9D58" d="M31.409,162.831h45.299l21.028-21.028v-15.742l-37.472-0.007L31.409,76.565 V162.831z M31.409,162.831h45.299l21.028-21.028v-15.742l-37.472-0.007L31.409,76.565V162.831z"></path> <path clip-path="url(#SVGID_8_)" fill="#FFCD40" d="M79,93.604l18.736,32.449l-21.022,36.777h49.877V93.604H79z M79,93.604 l18.736,32.449l-21.022,36.777h49.877V93.604H79z"></path> <path clip-path="url(#SVGID_8_)" fill="#F1F1F1" d="M79,93.604c11.949,0,21.635,9.687,21.635,21.636 c0,11.948-9.686,21.636-21.635,21.636s-21.635-9.688-21.635-21.636C57.365,103.291,67.051,93.604,79,93.604"></path> <path clip-path="url(#SVGID_8_)" fill="#4285F4" d="M79,97.932c9.559,0,17.308,7.749,17.308,17.309 c0,9.559-7.749,17.308-17.308,17.308s-17.308-7.749-17.308-17.308C61.692,105.681,69.441,97.932,79,97.932"></path> </g> <g clip-path="url(#SVGID_2_)"> <defs> <path id="SVGID_9_" d="M61.466,42.601c0-2.768,2.242-5.01,5.01-5.01h25.048c2.767,0,5.01,2.242,5.01,5.01s-2.243,5.01-5.01,5.01 H66.476C63.708,47.611,61.466,45.369,61.466,42.601L61.466,42.601 M23.894,27.572v87.668c0,4.133,3.382,7.514,7.515,7.514h95.181 c4.133,0,7.515-3.381,7.515-7.514V27.572H23.894z"></path> </defs> <clipPath id="SVGID_10_"> <use xlink:href="#SVGID_9_" overflow="visible"></use> </clipPath> <g opacity="0.05" clip-path="url(#SVGID_10_)"> <g> <defs> <rect id="SVGID_11_" x="23.895" y="27.572" width="110.21" height="47.591"></rect> </defs> <clipPath id="SVGID_12_"> <use xlink:href="#SVGID_11_" overflow="visible"></use> </clipPath> <rect x="23.895" y="27.572" clip-path="url(#SVGID_12_)" fill="#212121" width="110.211" height="47.591"></rect> </g> </g> </g> <g clip-path="url(#SVGID_2_)"> <defs> <path id="SVGID_13_" d="M61.466,42.601c0-2.768,2.242-5.01,5.01-5.01h25.048c2.767,0,5.01,2.242,5.01,5.01s-2.243,5.01-5.01,5.01 H66.476C63.708,47.611,61.466,45.369,61.466,42.601 M23.894,27.572v87.668c0,4.133,3.382,7.514,7.515,7.514h95.181 c4.133,0,7.515-3.381,7.515-7.514V27.572H23.894z"></path> </defs> <clipPath id="SVGID_14_"> <use xlink:href="#SVGID_13_" overflow="visible"></use> </clipPath> <g opacity="0.02" clip-path="url(#SVGID_14_)"> <g> <defs> <rect id="SVGID_15_" x="23.895" y="74.537" width="110.21" height="0.626"></rect> </defs> <clipPath id="SVGID_16_"> <use xlink:href="#SVGID_15_" overflow="visible"></use> </clipPath> <rect x="23.895" y="74.537" clip-path="url(#SVGID_16_)" fill="#212121" width="110.211" height="0.626"></rect> </g> </g> <g opacity="0.05" clip-path="url(#SVGID_14_)"> <g> <defs> <rect id="SVGID_17_" x="23.895" y="75.163" width="110.21" height="0.626"></rect> </defs> <clipPath id="SVGID_18_"> <use xlink:href="#SVGID_17_" overflow="visible"></use> </clipPath> <rect x="23.895" y="75.163" clip-path="url(#SVGID_18_)" fill="#FFFFFF" width="110.211" height="0.626"></rect> </g> </g> <g opacity="0.02" clip-path="url(#SVGID_14_)"> <g> <defs> <rect id="SVGID_19_" x="23.895" y="27.572" width="110.21" height="20.665"></rect> </defs> <clipPath id="SVGID_20_"> <use xlink:href="#SVGID_19_" overflow="visible"></use> </clipPath> <path clip-path="url(#SVGID_20_)" fill="#212121" d="M91.524,47.61H66.476c-2.661,0-4.834-2.078-4.991-4.696 c-0.012,0.107-0.019,0.207-0.019,0.313c0,2.768,2.242,5.01,5.01,5.01h25.048c2.768,0,5.01-2.242,5.01-5.01 c0-0.106-0.007-0.206-0.019-0.313C96.358,45.532,94.185,47.61,91.524,47.61 M23.895,28.199h110.211v-0.626H23.895V28.199z"></path> </g> </g> <g opacity="0.1" clip-path="url(#SVGID_14_)"> <g> <defs> <rect id="SVGID_21_" x="23.895" y="36.965" width="110.21" height="85.789"></rect> </defs> <clipPath id="SVGID_22_"> <use xlink:href="#SVGID_21_" overflow="visible"></use> </clipPath> <path clip-path="url(#SVGID_22_)" fill="#231F20" d="M66.476,37.591h25.048c2.661,0,4.835,2.079,4.991,4.697 c0.006-0.106,0.019-0.207,0.019-0.313c0-2.768-2.242-5.01-5.01-5.01H66.476c-2.767,0-5.01,2.242-5.01,5.01 c0,0.106,0.007,0.207,0.02,0.313C61.642,39.67,63.815,37.591,66.476,37.591 M126.591,122.128H31.409 c-4.132,0-7.514-3.382-7.514-7.515v0.627c0,4.133,3.382,7.514,7.514,7.514h95.182c4.133,0,7.515-3.381,7.515-7.514v-0.627 C134.106,118.746,130.724,122.128,126.591,122.128"></path> </g> </g> </g> <g clip-path="url(#SVGID_2_)"> <defs> <path id="SVGID_23_" d="M61.466,42.601c0-2.768,2.242-5.01,5.01-5.01h25.048c2.767,0,5.01,2.242,5.01,5.01s-2.243,5.01-5.01,5.01 H66.476C63.708,47.611,61.466,45.369,61.466,42.601L61.466,42.601 M23.894,27.572v87.668c0,4.133,3.382,7.514,7.515,7.514h95.181 c4.133,0,7.515-3.381,7.515-7.514V27.572H23.894z"></path> </defs> <clipPath id="SVGID_24_"> <use xlink:href="#SVGID_23_" overflow="visible"></use> </clipPath> <defs> <filter id="Adobe_OpacityMaskFilter" x="23.894" y="27.572" width="110.211" height="95.182"> <feColorMatrix type="matrix" values="1 0 0 0 0 0 1 0 0 0 0 0 1 0 0 0 0 0 1 0"></feColorMatrix> </filter> </defs> <mask maskUnits="userSpaceOnUse" x="23.894" y="27.572" width="110.211" height="95.182" id="SVGID_25_"> <g filter="url(#Adobe_OpacityMaskFilter)"> <radialGradient id="SVGID_26_" cx="0" cy="150" r="1" gradientTransform="matrix(142.5198 0 0 142.5198 23.625 -21350.8398)" gradientUnits="userSpaceOnUse"> <stop offset="0" style="stop-color:#1A1A1A"></stop> <stop offset="1" style="stop-color:#000000"></stop> </radialGradient> <rect x="23.894" y="27.572" clip-path="url(#SVGID_24_)" fill="url(#SVGID_26_)" width="110.211" height="95.182"></rect> </g> </mask> <radialGradient id="SVGID_27_" cx="0" cy="150" r="1" gradientTransform="matrix(142.5197 0 0 142.5197 23.625 -21350.8359)" gradientUnits="userSpaceOnUse"> <stop offset="0" style="stop-color:#FFFFFF"></stop> <stop offset="1" style="stop-color:#FFFFFF"></stop> </radialGradient> <rect x="23.894" y="27.572" clip-path="url(#SVGID_24_)" mask="url(#SVGID_25_)" fill="url(#SVGID_27_)" width="110.211" height="95.182"></rect> </g> </g> </svg> 